<svg xmlns="http://www.w3.org/2000/svg" viewBox="0 0 64 64">
  <!-- Background circle -->
  <circle cx="32" cy="32" r="32" fill="#4ECDC4"/>

  <!-- Onigiri body (white rice) -->
  <path d="M32 12
    C22 12 14 20 14 30
    L14 50
    C14 52.2 15.8 54 18 54
    L46 54
    C48.2 54 50 52.2 50 50
    L50 30
    C50 20 42 12 32 12 Z"
    fill="#FFFFFF"/>

  <!-- Nori (seaweed) band -->
  <rect x="14" y="37" width="36" height="10" rx="2" fill="#2D2D2D"/>

  <!-- Nori shine highlight -->
  <rect x="17" y="39" width="8" height="1.5" rx="1" fill="rgba(255,255,255,0.15)"/>

  <!-- Rice highlight (top sheen) -->
  <ellipse cx="28" cy="22" rx="5" ry="3" fill="rgba(255,255,255,0.5)" transform="rotate(-15 28 22)"/>

  <!-- Sesame dots -->
  <circle cx="27" cy="31" r="1.2" fill="rgba(180,140,60,0.6)"/>
  <circle cx="32" cy="29" r="1.2" fill="rgba(180,140,60,0.6)"/>
  <circle cx="37" cy="31" r="1.2" fill="rgba(180,140,60,0.6)"/>
</svg>
